<svg width="1280" height="20" viewBox="0 0 1280 20" fill="none" xmlns="http://www.w3.org/2000/svg">
<path d="M1279.89 0H0V20H1279.89V0Z" fill="#0A9E50"/>
<g clip-path="url(#clip0_519_14037)">
<path d="M5.4 11.9C5.4 13.1 4.4 13.8 2.9 13.8C1.4 13.8 0 12.8 0 11.5H1.2C1.2 12.2 1.6 12.7 2.9 12.7C4.2 12.7 4.1 12.3 4.1 11.9C4.1 11.1 3.4 11.1 2.5 10.8C1.5 10.6 0.2 10.4 0.2 9C0.2 7.6 1.1 7.2 2.6 7.2C4.1 7.2 5.1 8.1 5.1 9.2H3.9C3.9 8.7 3.6 8.2 2.6 8.2C1.6 8.2 1.4 8.5 1.4 8.9C1.4 9.5 2.1 9.6 3 9.8C4.1 10.1 5.4 10.3 5.4 11.8V11.9Z" fill="#DBD0C1"/>
<path d="M9.00002 13.8C7.10002 13.8 5.90002 12.5 5.90002 10.6C5.90002 8.7 7.10002 7.4 9.00002 7.4C10.9 7.4 12.1 8.7 12.1 10.6C12.1 12.5 10.9 13.8 9.00002 13.8ZM9.00002 12.7C10.2 12.7 10.8 11.8 10.8 10.5C10.8 9.2 10.2 8.3 9.00002 8.3C7.80002 8.3 7.20002 9.2 7.20002 10.5C7.20002 11.8 7.80002 12.7 9.00002 12.7Z" fill="#DBD0C1"/>
<path d="M21.6 9.4V13.6H20.3V9.7C20.3 8.9 20.1 8.3 19.3 8.3C18.5 8.3 17.9 8.9 17.9 9.8V13.5H16.6V9.6C16.6 8.8 16.4 8.2 15.5 8.2C14.6 8.2 14.1 8.8 14.1 9.7V13.4H12.8V7.3H14.1V8.1C14.4 7.6 15 7.1 15.9 7.1C16.8 7.1 17.3 7.5 17.5 8.2C18 7.6 18.6 7.1 19.5 7.1C20.4 7.1 21.4 7.9 21.4 9.2L21.6 9.4Z" fill="#DBD0C1"/>
<path d="M25.6 13.8C23.7 13.8 22.5 12.5 22.5 10.6C22.5 8.7 23.7 7.4 25.6 7.4C27.5 7.4 28.7 8.7 28.7 10.6C28.7 12.5 27.5 13.8 25.6 13.8ZM25.6 12.7C26.8 12.7 27.4 11.8 27.4 10.5C27.4 9.2 26.8 8.3 25.6 8.3C24.4 8.3 23.8 9.2 23.8 10.5C23.8 11.8 24.4 12.7 25.6 12.7Z" fill="#DBD0C1"/>
<path d="M34.5999 11.9C34.5999 13.1 33.5999 13.8 32.0999 13.8C30.5999 13.8 29.3 12.9 29.2 11.6H30.4C30.4 12.3 30.8 12.8 32 12.8C33.2 12.8 33.2 12.4 33.2 12C33.2 11.2 32.5 11.2 31.6 10.9C30.6 10.7 29.2999 10.5 29.2999 9.1C29.2999 7.7 30.2 7.3 31.7 7.3C33.2 7.3 34.2 8.2 34.2 9.3H33C33 8.8 32.7 8.3 31.7 8.3C30.7 8.3 30.5 8.6 30.5 9C30.5 9.6 31.1999 9.7 32.0999 9.9C33.1999 10.2 34.5 10.4 34.5 11.9H34.5999Z" fill="#DBD0C1"/>
<path d="M56.8 12.4C56.8 13.2 56.9 13.3 57.6 13.3V13.6H54.9V13.3C55.5 13.3 55.6 13.1 55.6 12.4V8.8C55.6 8.2 55.4 7.9 54.9 7.9C54.4 7.9 54.1 8.2 53.7 8.8V12.4C53.7 13.2 53.7 13.3 54.4 13.3V13.6H51.8V13.3C52.4 13.3 52.5 13.1 52.5 12.4V8.8C52.5 8.2 52.3 7.9 51.8 7.9C51.3 7.9 51 8.2 50.5 8.8V12.4C50.5 13.2 50.5 13.3 51.2 13.3V13.6H48.5V13.3C49.2 13.3 49.3 13.1 49.3 12.4V8.7C49.3 7.9 49.3 7.7 48.6 8V7.7C48.5 7.7 50.2 7 50.2 7L50.4 7.2V8.3C50.9 7.6 51.4 7 52.2 7C53 7 53.3 7.4 53.4 8.3C53.8 7.6 54.4 7 55.2 7C56 7 56.5 7.6 56.5 8.7V12.3L56.8 12.4Z" fill="#DBD0C1"/>
<path d="M62.3 11C62.1 12.9 61.2 13.8 60.1 13.8C59 13.8 57.9 12.5 57.9 10.5C57.9 8.5 58.7 7 60.2 7C61.7 7 62.3 8.3 62.3 10.1H59.1C59.1 11.8 59.6 12.9 60.6 12.9C61.6 12.9 61.8 12.5 62.1 11H62.4H62.3ZM59.1 9.6H61.1C61.1 8.5 60.9 7.5 60.2 7.5C59.5 7.5 59.2 8.4 59.1 9.6Z" fill="#DBD0C1"/>
<path d="M62.9 10.5C62.9 8.5 63.8 7 65.3 7C66.8 7 67 7.7 67 8.6C67 9.5 66.8 9.4 66.4 9.4C66 9.4 65.8 9.2 65.8 8.8C65.8 8.4 65.8 8.4 65.8 8.1C65.8 7.7 65.6 7.5 65.2 7.5C64.3 7.5 64 8.7 64 10C64 11.3 64.5 12.8 65.5 12.8C66.5 12.8 66.7 12.4 66.9 10.9H67.2C67.1 12.9 66.2 13.7 65.1 13.7C64 13.7 62.9 12.3 62.9 10.4V10.5Z" fill="#DBD0C1"/>
<path d="M69.4 12.4C69.4 13.2 69.5 13.3 70.2 13.3V13.6H67.5V13.3C68.2 13.3 68.3 13.1 68.3 12.4V5.5C68.3 4.7 68.3 4.6 67.6 4.9V4.7C67.5 4.7 68.4 4.2 68.4 4.2L69.3 3.7L69.5 3.9V8.3C70 7.5 70.6 7 71.4 7C72.2 7 72.7 7.6 72.7 8.7V12.3C72.7 13.1 72.8 13.2 73.5 13.2V13.5H70.8V13.2C71.4 13.2 71.5 13 71.5 12.3V8.7C71.5 8 71.2 7.7 70.8 7.7C70.4 7.7 69.9 8 69.4 8.6V12.2V12.4Z" fill="#DBD0C1"/>
<path d="M79.1999 12.2C79.1999 13.1 78.8999 13.8 78.0999 13.8C77.2999 13.8 76.9999 13.3 76.9999 12.2V12C76.6999 13.1 76.0999 13.8 75.1999 13.8C74.2999 13.8 73.8999 13.2 73.8999 12.4C73.8999 10.9 75.5999 10.2 76.9999 9.6V8.9C76.9999 7.9 76.6999 7.5 76.0999 7.5C75.4999 7.5 75.2999 7.7 75.2999 8.1C75.2999 8.5 75.4999 8.5 75.4999 8.8C75.4999 9.1 75.2999 9.4 74.8999 9.4C74.4999 9.4 74.1999 9.1 74.1999 8.6C74.1999 7.7 75.0999 7 76.2999 7C77.4999 7 78.1999 7.7 78.1999 9V12.6C78.1999 13.2 78.2999 13.3 78.4999 13.3C78.6999 13.3 78.8999 13.1 78.9999 12.3H79.2999L79.1999 12.2ZM76.8999 11.4V10C75.8999 10.5 74.8999 11.1 74.8999 12.1C74.8999 13.1 75.0999 12.9 75.5999 12.9C76.0999 12.9 76.5999 12.5 76.8999 11.4Z" fill="#DBD0C1"/>
<path d="M95.9999 5.7C96.8999 5.7 97.4999 6.1 97.4999 6.8C97.4999 7.9 96.0999 8.3 94.9999 8.7C95.1999 9.4 95.5 10.1 95.8 10.8C96.7 9.1 97.1999 8.4 98.0999 8.4C98.9999 8.4 98.8999 9.7 98.0999 9.7C97.2999 9.7 97.5999 9.6 97.4999 9.3C97.4999 9.3 97.4999 9.2 97.4999 9.1C97.4999 9 97.2 9.2 96.8 9.9C96.5 10.3 96.1999 10.7 95.9999 11.2C96.2999 12 97 12.7 97.4 12.7C97.8 12.7 98.1999 12.4 98.4999 11.6H98.8C98.4 12.7 97.9 13.9 96.9 13.9C95.9 13.9 96.2 13.7 95.9 13.4C95.7 13.2 95.3999 12.8 95.1999 12.4C94.4999 13.4 93.7 13.8 92.8 13.8C91.9 13.8 91.8999 13.6 91.5999 13.2C91.2999 12.8 91.2 12.3 91.3 11.8C91.4 11.3 91.5999 10.7 91.9999 10.3C92.4999 9.8 93.1999 9.3 93.9999 9C93.9999 8.7 93.9999 8.4 93.9999 8C94.0999 6.8 95.0999 5.8 96.1999 5.8L95.9999 5.7ZM93.9999 9.2C93.0999 9.6 92.5 10.5 92.4 11.4C92.4 12.3 92.7999 12.9 93.4999 12.9C94.1999 12.9 94.4999 12.6 94.9999 12C94.3999 10.8 94.1999 9.8 93.9999 9.1V9.2ZM94.9 8.5C95.8 8.1 96.5999 7.8 96.5999 7C96.5999 6.2 96.3999 6.1 95.9999 6.1C94.8999 6.1 94.5 7 94.9 8.5Z" fill="#DBD0C1"/>
<path d="M112.6 10.5C112.6 8.5 113.5 7 115 7C116.5 7 116.7 7.7 116.7 8.6C116.7 9.5 116.5 9.4 116.1 9.4C115.7 9.4 115.5 9.2 115.5 8.8C115.5 8.4 115.5 8.4 115.5 8.1C115.5 7.7 115.3 7.5 114.9 7.5C114 7.5 113.7 8.7 113.7 10C113.7 11.3 114.2 12.8 115.2 12.8C116.2 12.8 116.4 12.4 116.6 10.9H116.9C116.8 12.9 115.9 13.7 114.8 13.7C113.7 13.7 112.6 12.3 112.6 10.4V10.5Z" fill="#DBD0C1"/>
<path d="M121.5 7.6C121.5 8.1 121.2 8.4 120.9 8.4C120.6 8.4 120.6 8.4 120.4 8.2C120.2 8 120.2 8 120 8C119.7 8 119.4 8.4 119.2 9.1V12.3C119.2 13.1 119.4 13.3 120.5 13.3V13.6H117.3V13.3C118 13.3 118.1 13.1 118.1 12.4V8.7C118.1 7.9 118.1 7.7 117.4 8V7.7C117.3 7.7 118.2 7.3 118.2 7.3L119 7L119.2 7.2V8.3C119.5 7.7 120.1 7 120.8 7C121.5 7 121.5 7.2 121.5 7.6Z" fill="#DBD0C1"/>
<path d="M121.8 10.4C121.8 8.5 122.7 7 124.4 7C126.1 7 127 8.4 127 10.4C127 12.4 126 13.8 124.4 13.8C122.8 13.8 121.8 12.4 121.8 10.4ZM125.8 11.1C125.8 9.5 125.3 7.6 124.2 7.6C123.1 7.6 123 8.7 123 9.8C123 11.4 123.5 13.3 124.6 13.3C125.7 13.3 125.8 12.2 125.8 11.1Z" fill="#DBD0C1"/>
<path d="M135.6 12.4C135.6 13.2 135.7 13.3 136.4 13.3V13.6H133.7V13.3C134.3 13.3 134.4 13.1 134.4 12.4V8.8C134.4 8.2 134.2 7.9 133.7 7.9C133.2 7.9 132.9 8.2 132.5 8.8V12.4C132.5 13.2 132.6 13.3 133.2 13.3V13.6H130.6V13.3C131.2 13.3 131.3 13.1 131.3 12.4V8.8C131.3 8.2 131.1 7.9 130.6 7.9C130.1 7.9 129.8 8.2 129.3 8.8V12.4C129.3 13.2 129.4 13.3 130 13.3V13.6H127.3V13.3C128 13.3 128.1 13.1 128.1 12.4V8.7C128.1 7.9 128.1 7.7 127.4 8V7.7C127.3 7.7 129 7 129 7L129.2 7.2V8.3C129.7 7.6 130.2 7 131 7C131.8 7 132.1 7.4 132.2 8.3C132.6 7.6 133.2 7 134 7C134.8 7 135.3 7.6 135.3 8.7V12.3L135.6 12.4Z" fill="#DBD0C1"/>
<path d="M142 12.2C142 13.1 141.7 13.8 140.9 13.8C140.1 13.8 139.8 13.3 139.8 12.2V12C139.5 13.1 138.9 13.8 138 13.8C137.1 13.8 136.7 13.2 136.7 12.4C136.7 10.9 138.4 10.2 139.8 9.6V8.9C139.8 7.9 139.5 7.5 138.9 7.5C138.3 7.5 138.1 7.7 138.1 8.1C138.1 8.5 138.3 8.5 138.3 8.8C138.3 9.1 138.1 9.4 137.7 9.4C137.3 9.4 137 9.1 137 8.6C137 7.7 137.9 7 139.1 7C140.3 7 141 7.7 141 9V12.6C141 13.2 141.1 13.3 141.3 13.3C141.5 13.3 141.7 13.1 141.8 12.3H142.1L142 12.2ZM139.8 11.4V10C138.8 10.5 137.8 11.1 137.8 12.1C137.8 13.1 138 12.9 138.4 12.9C138.8 12.9 139.4 12.5 139.7 11.4H139.8Z" fill="#DBD0C1"/>
<path d="M163.8 9.5V9.6C162.8 10.5 161.4 12.5 160.7 12.5C160 12.5 159.8 11.6 160.3 11.2C161.1 10.5 162.4 10.3 163.2 9.8C163.3 9.8 163.4 9.7 163.2 9.7C160.5 9.7 158.9 10.9 156.9 10.9C154.9 10.9 155.6 10.3 155.6 9.6C155.6 8.9 156.2 8.3 156.9 8.3C158.9 8.3 160.5 9.5 163.2 9.5C165.9 9.5 163.3 9.5 163.2 9.4C162.1 8.7 160 8.4 160 7.5C160 6.6 160.3 6.7 160.7 6.7C161.5 6.7 162.8 8.6 163.8 9.5Z" fill="#DBD0C1"/>
<path d="M188.7 5V13.6H187.4V5H188.7Z" fill="#DBD0C1"/>
<path d="M194.2 11.7H195.5C195.2 12.9 194.3 13.8 192.7 13.8C191.1 13.8 189.6 12.5 189.6 10.6C189.6 8.7 190.8 7.4 192.6 7.4C194.4 7.4 195.6 8.8 195.6 11H190.9C190.9 12 191.6 12.9 192.7 12.9C193.8 12.9 194.2 12.3 194.3 11.9L194.2 11.7ZM190.8 9.9H194.2C194.2 9 193.5 8.3 192.5 8.3C191.5 8.3 190.7 9 190.7 9.9H190.8Z" fill="#DBD0C1"/>
<path d="M200.7 11.7H202C201.7 12.9 200.8 13.8 199.2 13.8C197.6 13.8 196.1 12.5 196.1 10.6C196.1 8.7 197.3 7.4 199.1 7.4C200.9 7.4 202.1 8.8 202.1 11H197.4C197.4 12 198.1 12.9 199.2 12.9C200.3 12.9 200.7 12.3 200.8 11.9L200.7 11.7ZM197.4 9.9H200.8C200.8 9 200.1 8.3 199.1 8.3C198.1 8.3 197.3 9 197.3 9.9H197.4Z" fill="#DBD0C1"/>
<path d="M211.6 9.4V13.6H210.3V9.7C210.3 8.9 210.1 8.3 209.3 8.3C208.5 8.3 207.9 8.9 207.9 9.8V13.5H206.6V9.6C206.6 8.8 206.4 8.2 205.5 8.2C204.6 8.2 204.1 8.8 204.1 9.7V13.4H202.8V7.3H204.1V8.1C204.4 7.6 205 7.1 205.9 7.1C206.8 7.1 207.3 7.5 207.5 8.2C208 7.6 208.6 7.1 209.5 7.1C210.4 7.1 211.4 7.9 211.4 9.2L211.6 9.4Z" fill="#DBD0C1"/>
<path d="M215.5 13.8C213.6 13.8 212.4 12.5 212.4 10.6C212.4 8.7 213.6 7.4 215.5 7.4C217.4 7.4 218.6 8.7 218.6 10.6C218.6 12.5 217.4 13.8 215.5 13.8ZM215.5 12.7C216.7 12.7 217.3 11.8 217.3 10.5C217.3 9.2 216.7 8.3 215.5 8.3C214.3 8.3 213.7 9.2 213.7 10.5C213.7 11.8 214.3 12.7 215.5 12.7Z" fill="#DBD0C1"/>
<path d="M224.5 11.9C224.5 13.1 223.5 13.8 222 13.8C220.5 13.8 219.2 12.9 219.1 11.6H220.3C220.3 12.3 220.7 12.8 221.9 12.8C223.1 12.8 223.1 12.4 223.1 12C223.1 11.2 222.4 11.2 221.5 10.9C220.5 10.7 219.2 10.5 219.2 9.1C219.2 7.7 220.1 7.3 221.6 7.3C223.1 7.3 224.1 8.2 224.2 9.3H223C223 8.8 222.7 8.3 221.7 8.3C220.7 8.3 220.5 8.6 220.5 9C220.5 9.6 221.2 9.7 222.1 9.9C223.2 10.2 224.5 10.4 224.5 11.9Z" fill="#DBD0C1"/>
<path d="M225.2 12.9C225.2 12.4 225.6 12.1 226 12.1C226.4 12.1 226.8 12.5 226.8 13.2C226.8 13.9 226.4 15.1 225.3 15.2V14.5C225.7 14.5 226 14 226 13.6C225.5 13.6 225.1 13.4 225.1 12.8L225.2 12.9Z" fill="#DBD0C1"/>
<path d="M244.2 7.3V8.5C243 8.3 242 9.1 242 10.4V13.5H240.7V7.4H242V8.6C242.3 7.8 242.8 7.3 243.6 7.3C244.4 7.3 244 7.3 244.2 7.3Z" fill="#DBD0C1"/>
<path d="M249.3 11.7H250.6C250.3 12.9 249.4 13.8 247.8 13.8C246.2 13.8 244.7 12.5 244.7 10.6C244.7 8.7 245.9 7.4 247.7 7.4C249.5 7.4 250.7 8.8 250.7 11H246C246 12 246.7 12.9 247.8 12.9C248.9 12.9 249.3 12.3 249.4 11.9L249.3 11.7ZM246 9.9H249.4C249.4 9 248.7 8.3 247.7 8.3C246.7 8.3 245.9 9 245.9 9.9H246Z" fill="#DBD0C1"/>
<path d="M254.2 8.3C253 8.3 252.4 9.4 252.4 10.5C252.4 11.6 252.9 12.7 254.2 12.7C255.5 12.7 255.7 11.9 255.7 11.3H257C256.9 12.7 255.8 13.8 254.2 13.8C252.6 13.8 251.2 12.5 251.2 10.6C251.2 8.7 252.4 7.4 254.2 7.4C256 7.4 256.8 8.4 257 9.8H255.7C255.7 9.2 255.3 8.4 254.2 8.4V8.3Z" fill="#DBD0C1"/>
<path d="M260.6 13.8C258.7 13.8 257.5 12.5 257.5 10.6C257.5 8.7 258.7 7.4 260.6 7.4C262.5 7.4 263.7 8.7 263.7 10.6C263.7 12.5 262.5 13.8 260.6 13.8ZM260.6 12.7C261.8 12.7 262.4 11.8 262.4 10.5C262.4 9.2 261.8 8.3 260.6 8.3C259.4 8.3 258.8 9.2 258.8 10.5C258.8 11.8 259.4 12.7 260.6 12.7Z" fill="#DBD0C1"/>
<path d="M273.3 9.4V13.6H272V9.7C272 8.9 271.8 8.3 271 8.3C270.2 8.3 269.6 8.9 269.6 9.8V13.5H268.3V9.6C268.3 8.8 268.1 8.2 267.3 8.2C266.5 8.2 265.9 8.8 265.9 9.7V13.4H264.6V7.3H265.9V8.1C266.2 7.6 266.8 7.1 267.7 7.1C268.6 7.1 269.1 7.5 269.3 8.2C269.8 7.6 270.4 7.1 271.3 7.1C272.2 7.1 273.2 7.9 273.2 9.2L273.3 9.4Z" fill="#DBD0C1"/>
<path d="M278.7 11.7H280C279.7 12.9 278.8 13.8 277.2 13.8C275.6 13.8 274.1 12.5 274.1 10.6C274.1 8.7 275.3 7.4 277.1 7.4C278.9 7.4 280.1 8.8 280.1 11H275.4C275.4 12 276.1 12.9 277.2 12.9C278.3 12.9 278.7 12.3 278.8 11.9L278.7 11.7ZM275.4 9.9H278.9C278.9 9 278.2 8.3 277.2 8.3C276.2 8.3 275.4 9 275.4 9.9Z" fill="#DBD0C1"/>
<path d="M286.3 9.4V13.6H285V9.7C285 8.9 284.6 8.3 283.8 8.3C283 8.3 282.2 8.9 282.2 9.8V13.5H280.9V7.4H282.2V8.2C282.5 7.7 283.2 7.2 284.2 7.2C285.2 7.2 286.2 7.9 286.2 9.3L286.3 9.4Z" fill="#DBD0C1"/>
<path d="M293 5V13.6H291.7V12.9C291.4 13.3 290.8 13.8 289.8 13.8C288.2 13.8 287.1 12.6 287.1 10.6C287.1 8.6 288.3 7.4 289.8 7.4C291.3 7.4 291.3 7.8 291.7 8.3V5.1H293V5ZM291.8 10.5C291.8 9.1 291.2 8.3 290.1 8.3C289 8.3 288.4 9.3 288.4 10.5C288.4 11.7 289 12.7 290.1 12.7C291.2 12.7 291.8 11.8 291.8 10.5Z" fill="#DBD0C1"/>
<path d="M296.9 8.3C295.9 8.3 295.5 8.6 295.5 9.4H294.3C294.3 8.2 295.1 7.3 297 7.3C298.9 7.3 299.4 7.8 299.4 9.5V12.4C299.4 12.8 299.5 13.1 300 13V13.6C299.7 13.7 299.5 13.7 299.3 13.7C298.6 13.7 298.3 13.5 298.2 12.9C297.8 13.4 297.1 13.8 296.2 13.8C295.3 13.8 294.2 13.1 294.2 12C294.2 10.9 295.2 10.2 296.7 9.9C297.7 9.7 298.2 9.6 298.2 9C298.2 8.4 297.9 8.2 297.1 8.2L296.9 8.3ZM298 11.3V10.4C297.8 10.5 297.3 10.7 296.7 10.8C295.7 11 295.2 11.3 295.2 11.9C295.2 12.5 295.5 12.8 296.2 12.8C297.2 12.8 298 12.3 298 11.3Z" fill="#DBD0C1"/>
<path d="M309.2 9.4V13.6H307.9V9.7C307.9 8.9 307.7 8.3 306.9 8.3C306.1 8.3 305.5 8.9 305.5 9.8V13.5H304.2V9.6C304.2 8.8 304 8.2 303.2 8.2C302.4 8.2 301.8 8.8 301.8 9.7V13.4H300.5V7.3H301.8V8.1C302.1 7.6 302.7 7.1 303.6 7.1C304.5 7.1 305 7.5 305.2 8.2C305.7 7.6 306.3 7.1 307.2 7.1C308.1 7.1 309.1 7.9 309.1 9.2L309.2 9.4Z" fill="#DBD0C1"/>
<path d="M313.1 13.8C311.2 13.8 310 12.5 310 10.6C310 8.7 311.2 7.4 313.1 7.4C315 7.4 316.2 8.7 316.2 10.6C316.2 12.5 315 13.8 313.1 13.8ZM313.1 12.7C314.3 12.7 314.9 11.8 314.9 10.5C314.9 9.2 314.3 8.3 313.1 8.3C311.9 8.3 311.3 9.2 311.3 10.5C311.3 11.8 311.9 12.7 313.1 12.7Z" fill="#DBD0C1"/>
<path d="M322.1 11.9C322.1 13.1 321.1 13.8 319.6 13.8C318.1 13.8 316.8 12.9 316.7 11.6H317.9C317.9 12.3 318.3 12.8 319.5 12.8C320.7 12.8 320.7 12.4 320.7 12C320.7 11.2 320 11.2 319.1 10.9C318.1 10.7 316.8 10.5 316.8 9.1C316.8 7.7 317.7 7.3 319.2 7.3C320.7 7.3 321.7 8.2 321.7 9.3H320.5C320.5 8.8 320.2 8.3 319.2 8.3C318.2 8.3 318 8.6 318 9C318 9.6 318.7 9.7 319.6 9.9C320.7 10.2 322 10.4 322 11.9H322.1Z" fill="#DBD0C1"/>
<path d="M339.4 14C339 14.9 338.6 15.7 337.5 15.7C336.4 15.7 336.8 15.7 336.6 15.6V14.6H336.7C337.2 14.6 337.6 14.6 337.9 14.3C338.1 14 338.3 13.5 338.1 13L335.9 7.5H337.3L339 12.2L340.6 7.5H342L339.5 14H339.4Z" fill="#DBD0C1"/>
<path d="M356 7.4L357.5 12.2L359 7.4H360.3L358.1 13.5H356.7L354.5 7.4H355.9H356Z" fill="#DBD0C1"/>
<path d="M365.4 11.7H366.7C366.4 12.9 365.5 13.8 363.9 13.8C362.3 13.8 360.8 12.5 360.8 10.6C360.8 8.7 362 7.4 363.8 7.4C365.6 7.4 366.8 8.8 366.8 11H362.1C362.1 12 362.8 12.9 363.9 12.9C365 12.9 365.4 12.3 365.5 11.9L365.4 11.7ZM362 9.9H365.5C365.5 9 364.8 8.3 363.8 8.3C362.8 8.3 362 9 362 9.9Z" fill="#DBD0C1"/>
<path d="M373 9.4V13.6H371.7V9.7C371.7 8.9 371.3 8.3 370.5 8.3C369.7 8.3 368.9 8.9 368.9 9.8V13.5H367.6V7.4H368.9V8.2C369.2 7.7 369.9 7.2 370.9 7.2C371.9 7.2 372.9 7.9 372.9 9.3L373 9.4Z" fill="#DBD0C1"/>
<path d="M379.7 5V13.6H378.4V12.9C378.1 13.3 377.5 13.8 376.5 13.8C374.9 13.8 373.8 12.6 373.8 10.6C373.8 8.6 375 7.4 376.5 7.4C378 7.4 378 7.8 378.4 8.3V5.1H379.7V5ZM378.4 10.5C378.4 9.1 377.8 8.3 376.7 8.3C375.6 8.3 375 9.3 375 10.5C375 11.7 375.6 12.7 376.7 12.7C377.8 12.7 378.4 11.8 378.4 10.5Z" fill="#DBD0C1"/>
<path d="M385.2 11.7H386.5C386.2 12.9 385.3 13.8 383.7 13.8C382.1 13.8 380.6 12.5 380.6 10.6C380.6 8.7 381.8 7.4 383.6 7.4C385.4 7.4 386.6 8.8 386.6 11H381.9C381.9 12 382.6 12.9 383.7 12.9C384.8 12.9 385.2 12.3 385.3 11.9L385.2 11.7ZM381.8 9.9H385.3C385.3 9 384.6 8.3 383.6 8.3C382.6 8.3 381.8 9 381.8 9.9Z" fill="#DBD0C1"/>
<path d="M396.1 9.4V13.6H394.8V9.7C394.8 8.9 394.6 8.3 393.8 8.3C393 8.3 392.4 8.9 392.4 9.8V13.5H391.1V9.6C391.1 8.8 390.9 8.2 390.1 8.2C389.3 8.2 388.7 8.8 388.7 9.7V13.4H387.4V7.3H388.7V8.1C389 7.6 389.6 7.1 390.5 7.1C391.4 7.1 391.9 7.5 392.1 8.2C392.6 7.6 393.2 7.1 394.1 7.1C395 7.1 396 7.9 396 9.2L396.1 9.4Z" fill="#DBD0C1"/>
<path d="M400 13.8C398.1 13.8 396.9 12.5 396.9 10.6C396.9 8.7 398.1 7.4 400 7.4C401.9 7.4 403.1 8.7 403.1 10.6C403.1 12.5 401.9 13.8 400 13.8ZM400 12.7C401.2 12.7 401.8 11.8 401.8 10.5C401.8 9.2 401.2 8.3 400 8.3C398.8 8.3 398.2 9.2 398.2 10.5C398.2 11.8 398.8 12.7 400 12.7Z" fill="#DBD0C1"/>
<path d="M409 11.9C409 13.1 408 13.8 406.5 13.8C405 13.8 403.7 12.9 403.6 11.6H404.8C404.8 12.3 405.2 12.8 406.4 12.8C407.6 12.8 407.6 12.4 407.6 12C407.6 11.2 406.9 11.2 406 10.9C405 10.7 403.7 10.5 403.7 9.1C403.7 7.7 404.6 7.3 406.1 7.3C407.6 7.3 408.6 8.2 408.6 9.3H407.4C407.4 8.8 407.1 8.3 406.1 8.3C405.1 8.3 404.9 8.6 404.9 9C404.9 9.6 405.6 9.7 406.5 9.9C407.6 10.2 408.9 10.4 408.9 11.9H409Z" fill="#DBD0C1"/>
<path d="M432 9.5V9.6C431 10.5 429.6 12.5 428.9 12.5C428.2 12.5 428 11.6 428.5 11.2C429.3 10.5 430.6 10.3 431.5 9.8C431.6 9.8 431.7 9.7 431.5 9.7C428.8 9.7 427.2 10.9 425.2 10.9C423.2 10.9 423.9 10.3 423.9 9.6C423.9 8.9 424.5 8.3 425.2 8.3C427.2 8.3 428.8 9.5 431.5 9.5C434.2 9.5 431.6 9.5 431.5 9.4C430.4 8.7 428.3 8.4 428.3 7.5C428.3 6.6 428.6 6.7 429 6.7C429.8 6.7 431.1 8.6 432.1 9.5H432Z" fill="#DBD0C1"/>
<path d="M461.5 11.7C461.2 12.3 460.7 12.6 459.9 12.6C459.1 12.6 457.9 11.7 457.9 10.1C457.9 8.5 458.9 7.4 460.1 7.4C461.3 7.4 461.5 7.8 461.7 8.4V7.5H462.9L462.5 10.5C462.4 11.3 462.7 11.7 463.2 11.7C463.7 11.7 464.4 11.1 464.4 9.7C464.4 7.5 462.9 5.9 460.5 5.9C458.1 5.9 456.4 7.9 456.4 10C456.4 12.1 458 13.9 460.4 13.9C462.8 13.9 461.8 13.9 462.5 13.5L462.8 14.3C462 14.7 461.2 14.8 460.3 14.8C457.4 14.8 455.4 12.9 455.4 9.9C455.4 6.9 457.5 4.9 460.5 4.9C463.5 4.9 465.3 7 465.3 9.6C465.3 12.2 464.2 12.5 463.1 12.5C462 12.5 461.7 12.1 461.4 11.5L461.5 11.7ZM461.5 9.8C461.5 8.8 461 8.4 460.4 8.4C459.8 8.4 459 9.2 459 10.2C459 11.2 459.3 11.6 460.1 11.6C460.9 11.6 461.5 10.8 461.5 9.8Z" fill="#DBD0C1"/>
<path d="M467.7 5V13.6H466.4V5H467.7Z" fill="#DBD0C1"/>
<path d="M471.5 8.3C470.5 8.3 470.1 8.6 470.1 9.4H468.9C468.9 8.2 469.7 7.3 471.6 7.3C473.5 7.3 474 7.8 474 9.5V12.4C474 12.8 474.1 13.1 474.6 13V13.6C474.3 13.7 474.1 13.7 473.9 13.7C473.2 13.7 472.9 13.5 472.8 12.9C472.4 13.4 471.7 13.8 470.8 13.8C469.9 13.8 468.8 13.1 468.8 12C468.8 10.9 469.8 10.2 471.3 9.9C472.3 9.7 472.8 9.6 472.8 9C472.8 8.4 472.5 8.2 471.7 8.2L471.5 8.3ZM472.6 11.3V10.4C472.4 10.5 471.9 10.7 471.3 10.8C470.3 11 469.8 11.3 469.8 11.9C469.8 12.5 470.1 12.8 470.8 12.8C471.8 12.8 472.6 12.3 472.6 11.3Z" fill="#DBD0C1"/>
<path d="M481.1 10.5C481.1 12.5 479.9 13.7 478.4 13.7C476.9 13.7 476.8 13.2 476.5 12.8V15.6H475.2V7.4H476.5V8.1C476.8 7.7 477.4 7.2 478.4 7.2C480 7.2 481.1 8.4 481.1 10.4V10.5ZM479.8 10.5C479.8 9.3 479.2 8.3 478.1 8.3C477 8.3 476.4 9.1 476.4 10.5C476.4 11.9 477 12.7 478.1 12.7C479.2 12.7 479.8 11.7 479.8 10.5Z" fill="#DBD0C1"/>
<path d="M484.6 8.3C483.6 8.3 483.2 8.6 483.2 9.4H482C482 8.2 482.8 7.3 484.7 7.3C486.6 7.3 487.1 7.8 487.1 9.5V12.4C487.1 12.8 487.2 13.1 487.7 13V13.6C487.4 13.7 487.2 13.7 487 13.7C486.3 13.7 486 13.5 485.9 12.9C485.5 13.4 484.8 13.8 483.9 13.8C483 13.8 481.9 13.1 481.9 12C481.9 10.9 482.9 10.2 484.4 9.9C485.4 9.7 485.9 9.6 485.9 9C485.9 8.4 485.6 8.2 484.8 8.2L484.6 8.3ZM485.7 11.3V10.4C485.5 10.5 485 10.7 484.4 10.8C483.4 11 482.9 11.3 482.9 11.9C482.9 12.5 483.2 12.8 483.9 12.8C484.9 12.8 485.7 12.3 485.7 11.3Z" fill="#DBD0C1"/>
<path d="M489.6 5V13.6H488.3V5H489.6Z" fill="#DBD0C1"/>
<path d="M493.5 8.3C492.5 8.3 492.1 8.6 492.1 9.4H490.9C490.9 8.2 491.7 7.3 493.6 7.3C495.5 7.3 496 7.8 496 9.5V12.4C496 12.8 496.1 13.1 496.6 13V13.6C496.3 13.7 496.1 13.7 495.9 13.7C495.2 13.7 494.9 13.5 494.8 12.9C494.4 13.4 493.7 13.8 492.8 13.8C491.9 13.8 490.8 13.1 490.8 12C490.8 10.9 491.8 10.2 493.3 9.9C494.3 9.7 494.8 9.6 494.8 9C494.8 8.4 494.5 8.2 493.7 8.2L493.5 8.3ZM494.6 11.3V10.4C494.4 10.5 493.9 10.7 493.3 10.8C492.3 11 491.8 11.3 491.8 11.9C491.8 12.5 492.1 12.8 492.8 12.8C493.8 12.8 494.6 12.3 494.6 11.3Z" fill="#DBD0C1"/>
<path d="M499.9 8.3C498.7 8.3 498.1 9.4 498.1 10.5C498.1 11.6 498.6 12.7 499.9 12.7C501.2 12.7 501.4 11.9 501.4 11.3H502.7C502.6 12.7 501.5 13.8 499.9 13.8C498.3 13.8 496.9 12.5 496.9 10.6C496.9 8.7 498.1 7.4 499.9 7.4C501.7 7.4 502.5 8.4 502.7 9.8H501.4C501.4 9.2 500.9 8.4 499.9 8.4V8.3Z" fill="#DBD0C1"/>
<path d="M503.5 5.7C503.5 5.3 503.9 5 504.2 5C504.5 5 504.9 5.2 504.9 5.7C504.9 6.2 504.5 6.4 504.2 6.4C503.9 6.4 503.5 6.2 503.5 5.7ZM504.8 7.4V13.5H503.5V7.4H504.8Z" fill="#DBD0C1"/>
<path d="M508.9 13.8C507 13.8 505.8 12.5 505.8 10.6C505.8 8.7 507 7.4 508.9 7.4C510.8 7.4 512 8.7 512 10.6C512 12.5 510.8 13.8 508.9 13.8ZM508.9 12.7C510.1 12.7 510.7 11.8 510.7 10.5C510.7 9.2 510.1 8.3 508.9 8.3C507.7 8.3 507.1 9.2 507.1 10.5C507.1 11.8 507.7 12.7 508.9 12.7Z" fill="#DBD0C1"/>
<path d="M514.2 5V13.6H512.9V5H514.2Z" fill="#DBD0C1"/>
<path d="M515.4 5.7C515.4 5.3 515.8 5 516.1 5C516.4 5 516.8 5.2 516.8 5.7C516.8 6.2 516.5 6.4 516.1 6.4C515.7 6.4 515.4 6.2 515.4 5.7ZM516.7 7.4V13.5H515.4V7.4H516.7Z" fill="#DBD0C1"/>
<path d="M523.9 10.5C523.9 12.5 522.7 13.7 521.2 13.7C519.7 13.7 519.7 13.2 519.3 12.8V13.5H518V5H519.3V8.2C519.6 7.7 520.2 7.3 521.2 7.3C522.8 7.3 523.9 8.5 523.9 10.5ZM522.7 10.5C522.7 9.3 522.1 8.3 521 8.3C519.9 8.3 519.3 9.1 519.3 10.5C519.3 11.9 519.9 12.7 521 12.7C522.1 12.7 522.7 11.7 522.7 10.5Z" fill="#DBD0C1"/>
<path d="M528.3 7.3V8.5C527.1 8.3 526.1 9.1 526.1 10.4V13.5H524.8V7.4H526.1V8.6C526.4 7.8 526.9 7.3 527.7 7.3C528.5 7.3 528.1 7.3 528.2 7.3H528.3Z" fill="#DBD0C1"/>
<path d="M531.8 13.8C529.9 13.8 528.7 12.5 528.7 10.6C528.7 8.7 529.9 7.4 531.8 7.4C533.7 7.4 534.9 8.7 534.9 10.6C534.9 12.5 533.7 13.8 531.8 13.8ZM531.8 12.7C533 12.7 533.6 11.8 533.6 10.5C533.6 9.2 533 8.3 531.8 8.3C530.6 8.3 530 9.2 530 10.5C530 11.8 530.6 12.7 531.8 12.7Z" fill="#DBD0C1"/>
<path d="M540.8 11.9C540.8 13.1 539.8 13.8 538.3 13.8C536.8 13.8 535.5 12.9 535.4 11.6H536.6C536.6 12.3 536.9 12.8 538.3 12.8C539.7 12.8 539.5 12.4 539.5 12C539.5 11.2 538.8 11.2 537.9 10.9C536.9 10.7 535.6 10.5 535.6 9.1C535.6 7.7 536.5 7.3 538 7.3C539.5 7.3 540.5 8.2 540.5 9.3H539.3C539.3 8.8 539 8.3 538 8.3C537 8.3 536.8 8.6 536.8 9C536.8 9.6 537.5 9.7 538.4 9.9C539.5 10.2 540.8 10.4 540.8 11.9Z" fill="#DBD0C1"/>
<path d="M563.2 9.5V9.6C562.2 10.5 560.8 12.5 560.1 12.5C559.4 12.5 559.2 11.6 559.7 11.2C560.5 10.5 561.9 10.3 562.7 9.8C562.7 9.8 562.9 9.7 562.7 9.7C560 9.7 558.4 10.9 556.4 10.9C554.4 10.9 555.1 10.3 555.1 9.6C555.1 8.9 555.7 8.3 556.4 8.3C558.4 8.3 560 9.5 562.7 9.5C565.4 9.5 562.8 9.5 562.7 9.4C561.6 8.7 559.5 8.4 559.5 7.5C559.5 6.6 559.8 6.7 560.2 6.7C561 6.7 562.4 8.6 563.3 9.5H563.2Z" fill="#DBD0C1"/>
<path d="M588.1 5V13.6H586.8V5H588.1Z" fill="#DBD0C1"/>
<path d="M589.4 5.7C589.4 5.3 589.8 5 590.1 5C590.4 5 590.8 5.2 590.8 5.7C590.8 6.2 590.5 6.4 590.1 6.4C589.7 6.4 589.4 6.2 589.4 5.7ZM590.7 7.4V13.5H589.4V7.4H590.7Z" fill="#DBD0C1"/>
<path d="M597.9 10.5C597.9 12.5 596.7 13.7 595.2 13.7C593.7 13.7 593.7 13.2 593.3 12.8V13.5H592V5H593.3V8.2C593.6 7.7 594.2 7.3 595.2 7.3C596.8 7.3 597.9 8.5 597.9 10.5ZM596.6 10.5C596.6 9.3 596 8.3 594.9 8.3C593.8 8.3 593.2 9.1 593.2 10.5C593.2 11.9 593.8 12.7 594.9 12.7C596 12.7 596.6 11.7 596.6 10.5Z" fill="#DBD0C1"/>
<path d="M602.2 7.3V8.5C601 8.3 600 9.1 600 10.4V13.5H598.7V7.4H600V8.6C600.3 7.8 600.8 7.3 601.6 7.3C602.4 7.3 602 7.3 602.1 7.3H602.2Z" fill="#DBD0C1"/>
<path d="M605.8 13.8C603.9 13.8 602.7 12.5 602.7 10.6C602.7 8.7 603.9 7.4 605.8 7.4C607.7 7.4 608.9 8.7 608.9 10.6C608.9 12.5 607.7 13.8 605.8 13.8ZM605.8 12.7C607 12.7 607.6 11.8 607.6 10.5C607.6 9.2 607 8.3 605.8 8.3C604.6 8.3 604 9.2 604 10.5C604 11.8 604.6 12.7 605.8 12.7Z" fill="#DBD0C1"/>
<path d="M614.8 11.9C614.8 13.1 613.8 13.8 612.3 13.8C610.8 13.8 609.5 12.9 609.4 11.6H610.6C610.6 12.3 610.9 12.8 612.3 12.8C613.7 12.8 613.5 12.4 613.5 12C613.5 11.2 612.8 11.2 611.9 10.9C610.9 10.7 609.6 10.5 609.6 9.1C609.6 7.7 610.5 7.3 612 7.3C613.5 7.3 614.5 8.2 614.5 9.3H613.3C613.3 8.8 613 8.3 612 8.3C611 8.3 610.8 8.6 610.8 9C610.8 9.6 611.5 9.7 612.4 9.9C613.5 10.2 614.8 10.4 614.8 11.9Z" fill="#DBD0C1"/>
<path d="M636.3 9.7C635 11.5 632.9 13.6 632.1 13.6C631.3 13.6 631.5 13.3 631.5 12.9C631.5 12.1 632.4 10.9 633.4 9.6C634 8.9 634.6 8 634.6 7.4C634.6 6.8 634.6 7.1 634.3 7.1C634 7.1 634 7.1 633.9 7.1C632.5 7.9 629.9 12.2 628.8 13.6C628.8 13.4 628.1 13.4 627.9 13.6H627.8C629.9 10.3 631.6 8.2 631.6 7.3C631.6 6.4 631.6 7.1 631.6 7.1C631.4 7.1 630.4 8.1 629.1 9.8H628.8C630.2 8 631.2 6.9 631.6 6.8C631.6 6.8 631.6 6.8 631.8 6.8C632.3 6.8 632.5 7.1 632.5 7.7C632.5 8.3 632.5 8.2 632.3 8.5C632.9 7.8 633.5 7.2 634 7C634.2 6.9 634.4 6.8 634.6 6.8C635.1 6.8 635.5 7.2 635.5 7.8C635.5 8.4 635.1 9.2 634.5 10.1C633.3 11.7 632.2 13 632.2 13.4C632.2 13.6 632.2 13.8 632.2 13.4C632.9 13.4 634.7 11.7 636.1 9.7H636.5H636.3Z" fill="#DBD0C1"/>
<path d="M649.4 9.7C648.5 11 643.9 17 638.7 17C633.5 17 636.2 15.7 637.1 13.3C637.3 12.8 637.5 12.3 637.8 11.8C636.7 12.9 635.6 13.7 635.1 13.7C634.4 13.7 634.1 13 634.4 12.1C634.8 10.6 637.2 8.1 638.2 6.8C638 7.3 638.8 7.1 639.2 6.8H639.4C638.2 8.5 635.1 12.1 635.1 13.3C635.1 14.5 635.1 13.5 635.2 13.5C635.7 13.5 637.2 12.2 638.5 10.7C638.8 10.3 639.1 9.8 639.4 9.4C640 8.6 640.3 8.3 641.3 6.9C641.3 7.3 641.9 7.2 642.2 6.9V7.1C641.6 8.1 640.8 9.3 640 10.3C639.1 11.6 638 12.9 637.6 14.1C637 15.4 636.8 16.9 638.7 16.9C643.7 16.9 648.2 11.1 649.1 9.9H649.4V9.7Z" fill="#DBD0C1"/>
<path d="M647.2 9.7C645.9 11.5 643 13.7 641.6 13.7C640.2 13.7 640.8 12.8 640.8 12.5C640.8 10.5 643.7 6.8 646.2 6.8C648.7 6.8 647 8.5 645.1 9.4C644.5 9.7 643.7 9.9 643.1 10C642.1 11.3 641.5 12.7 641.5 13.2C641.5 13.7 641.5 13.4 641.6 13.4C642.8 13.4 645.5 11.5 646.9 9.7H647.2ZM643.8 9.2C643.6 9.4 643.5 9.6 643.3 9.8C643.8 9.8 644.5 9.5 645 9.2C646.4 8.5 646.7 7.1 646.2 7.1C645.7 7.1 644.8 7.8 643.7 9.2H643.8Z" fill="#DBD0C1"/>
<path d="M649.9 6.9C650.5 6.9 650.9 7.2 650.9 7.8C650.9 8.4 650.6 9.2 649.9 10C648.2 12.2 647.6 13 647.6 13.3C647.6 13.5 647.6 13.6 647.6 13.3C649.4 13.3 653.1 8.4 653.1 8.1C653.1 7.8 652.7 8 652.7 7.4C652.7 6.8 653.9 6.3 653.9 7.4C653.9 8.5 649.6 13.7 647.6 13.7C645.6 13.7 647 13.4 647 13C647 12.2 647.9 11 648.9 9.7C649.7 8.7 650.5 7.3 649.7 7.3C648.9 7.3 648.2 8.3 646.9 10H646.5C648 7.9 649 7 649.7 7L649.9 6.9Z" fill="#DBD0C1"/>
<path d="M656.6 11.2C655.3 12.7 653.9 13.8 653.1 13.8C652.3 13.8 652.3 12.9 652.3 12.6C652.3 10.6 655.2 6.9 657.5 6.9C659.8 6.9 658.4 7.3 658.4 7.8C658.4 8.3 657.8 9.6 656.9 10.8C657.5 10.7 658 10.3 658.6 9.7H658.9C658.2 10.7 657.5 11.1 656.6 11.1V11.2ZM653 13.5C653.7 13.5 654.9 12.6 656.1 11.1C655.5 10.8 656 9.5 656.9 9.5C657.8 9.5 657.2 9.5 657.2 9.6C657.7 8.8 658 8.2 658 7.8C658 7.4 657.8 7.2 657.4 7.2C656 7.2 652.9 12 652.9 13.3C652.9 14.6 652.9 13.5 653 13.5Z" fill="#DBD0C1"/>
<path d="M662.9 2.7C665.7 2.7 667.5 4.3 667.5 6.6C667.5 10.1 663.8 12.9 660 13.2C659.3 13.7 658.3 13.9 657.6 13.6C656.7 13.2 656.4 12 656.8 10.9C656.8 10.9 656.8 10.7 656.9 10.6C657 10.4 657.2 10.3 657.4 10.4C657.6 10.4 657.6 10.7 657.4 10.9C657.3 11.1 657 11.2 656.9 11.2C656.7 12.2 657.4 12.8 658.9 12.9C659.4 12.5 659.8 11.7 660 10.9C660.3 10 660 9 660.2 7.9C659.8 8.5 659.2 9.2 658.7 9.9H658.4C659.4 8.6 659.9 8 660.4 7.2C660.7 6.7 660.5 6.1 661 6C661.3 6 661.4 6.2 661.4 6.4C661.4 6.7 661 6.9 660.8 7.2C660.3 8.6 661.4 9.7 661.2 11.3C661.2 11.8 660.9 12.4 660.5 12.7C664 12.3 667.3 9.7 667.3 6.5C667.3 3.3 665.7 2.8 663.1 2.8C660.5 2.8 656.8 4.1 653.9 4.1C651 4.1 650.2 3.1 649.8 1.2H650.1C650.5 2.9 652.1 3.4 654.2 3.4C656.3 3.4 660.7 2.5 663.1 2.5L662.9 2.7ZM658.6 13.2C657.9 13.2 657.3 12.9 657 12.5C657.1 12.9 657.4 13.1 657.6 13.2C657.9 13.4 658.3 13.3 658.6 13.2Z" fill="#DBD0C1"/>
<path d="M690.1 5.7C691 5.7 691.6 6.1 691.6 6.8C691.6 7.9 690.2 8.3 689.1 8.7C689.3 9.4 689.6 10.1 689.9 10.8C690.8 9.1 691.3 8.4 692.2 8.4C693.1 8.4 693 9.7 692.2 9.7C691.4 9.7 691.7 9.6 691.6 9.3C691.6 9.3 691.6 9.2 691.6 9.1C691.6 9 691.3 9.2 690.9 9.9C690.6 10.3 690.3 10.7 690.1 11.2C690.4 12 691.1 12.7 691.5 12.7C691.9 12.7 692.3 12.4 692.6 11.6H692.9C692.5 12.7 692 13.9 691 13.9C690 13.9 690.3 13.7 690 13.4C689.8 13.2 689.5 12.8 689.3 12.4C688.6 13.4 687.8 13.8 686.9 13.8C686 13.8 686 13.6 685.7 13.2C685.4 12.8 685.3 12.3 685.4 11.8C685.5 11.3 685.7 10.7 686.1 10.3C686.6 9.8 687.3 9.3 688.1 9C688.1 8.7 688.1 8.4 688.1 8C688.2 6.8 689.2 5.8 690.3 5.8L690.1 5.7ZM688.1 9.2C687.2 9.6 686.6 10.5 686.5 11.4C686.5 12.3 686.9 12.9 687.6 12.9C688.3 12.9 688.6 12.6 689.1 12C688.5 10.8 688.3 9.8 688.1 9.1V9.2ZM689 8.5C689.9 8.1 690.7 7.8 690.7 7C690.7 6.2 690.5 6.1 690.1 6.1C689 6.1 688.6 7 689 8.5Z" fill="#DBD0C1"/>
<path d="M720.6 13.6V12.6C720.2 13.2 719.6 13.8 718.8 13.8C718 13.8 717.5 13.1 717.5 12.1V8.7C717.5 7.9 717.5 7.8 716.7 8V7.7L718.5 7.1L718.7 7.3V12C718.7 12.7 718.9 13.1 719.4 13.1C719.9 13.1 720.4 12.7 720.7 12.2V8.8C720.7 8 720.7 7.9 719.9 8.1V7.8L721.7 7.2L721.9 7.4V12.3C721.9 13.1 721.9 13.3 722.7 13V13.3C722.8 13.3 721 14 721 14L720.8 13.8L720.6 13.6Z" fill="#DBD0C1"/>
<path d="M723.9 13.4C723.7 13.3 723.7 13.4 723.6 13.4V13.6H723.2V11H723.4C723.6 12.4 724.3 13.2 725.1 13.2C725.9 13.2 726 12.8 726 12.2C726 11.6 725.8 11.4 724.6 10.5C723.6 9.7 723.2 9.2 723.2 8.5C723.2 7.5 723.9 6.8 724.9 6.8C725.9 6.8 725.8 7 726 7.2C726.2 7.3 726.3 7.2 726.3 7.2V6.9H726.7V9H726.5C726.4 8.1 725.8 7.3 725 7.3C724.2 7.3 724.2 7.6 724.2 8.1C724.2 8.6 724.5 8.9 725.4 9.5C726.5 10.4 727 10.9 727 11.8C727 12.7 726.2 13.6 725.3 13.6C724.4 13.6 724.2 13.4 724 13.2L723.9 13.4Z" fill="#DBD0C1"/>
<path d="M732.9 12.2C732.9 13.1 732.6 13.8 731.8 13.8C731 13.8 730.7 13.3 730.7 12.2V12C730.4 13.1 729.8 13.8 728.9 13.8C728 13.8 727.6 13.2 727.6 12.4C727.6 10.9 729.3 10.2 730.7 9.6V8.9C730.7 7.9 730.4 7.5 729.8 7.5C729.2 7.5 729 7.7 729 8.1C729 8.5 729.2 8.5 729.2 8.8C729.2 9.1 729 9.4 728.6 9.4C728.2 9.4 727.9 9.1 727.9 8.6C727.9 7.7 728.8 7 730 7C731.2 7 731.9 7.7 731.9 9V12.6C731.9 13.2 732 13.3 732.2 13.3C732.4 13.3 732.6 13.1 732.7 12.3H733L732.9 12.2ZM730.7 11.4V10C729.7 10.5 728.7 11.1 728.7 12.1C728.7 13.1 728.9 12.9 729.4 12.9C729.9 12.9 730.4 12.5 730.7 11.4Z" fill="#DBD0C1"/>
<path d="M738.8 13.1L737 13.8L736.8 13.6V12.6C736.5 13.3 736 13.8 735.2 13.8C734 13.8 733.3 12.5 733.3 10.6C733.3 8.7 734.2 7 735.5 7C736.8 7 736.6 7.2 736.9 7.7V5.5C736.9 4.7 736.9 4.6 736.2 4.9V4.7C736.1 4.7 737.9 3.8 737.9 3.8L738.1 4V12.3C738.1 13.1 738.1 13.3 738.9 13V13.3C739 13.3 739 13.3 739 13.3L738.8 13.1ZM736.8 12V9.8C736.8 8.6 736.4 7.7 735.7 7.7C735 7.7 734.5 8.9 734.5 10.4C734.5 11.9 734.8 13 735.6 13C736.4 13 736.5 12.6 736.8 12.1V12Z" fill="#DBD0C1"/>
<path d="M739.4 10.4C739.4 8.5 740.4 7 742 7C743.6 7 744.6 8.4 744.6 10.4C744.6 12.4 743.6 13.8 742 13.8C740.4 13.8 739.4 12.4 739.4 10.4ZM743.3 11.1C743.3 9.5 742.8 7.6 741.8 7.6C740.8 7.6 740.6 8.7 740.6 9.8C740.6 11.4 741.1 13.3 742.2 13.3C743.3 13.3 743.4 12.2 743.4 11.1H743.3Z" fill="#DBD0C1"/>
<path d="M746.1 13.4C745.9 13.3 745.9 13.4 745.8 13.4V13.6H745.4V11H745.6C745.8 12.4 746.5 13.2 747.3 13.2C748.1 13.2 748.2 12.8 748.2 12.2C748.2 11.6 748 11.4 746.8 10.5C745.8 9.7 745.4 9.2 745.4 8.5C745.4 7.5 746.1 6.8 747.1 6.8C748.1 6.8 748 7 748.2 7.2C748.4 7.3 748.5 7.2 748.5 7.2V6.9H748.9V9H748.7C748.6 8.1 748 7.3 747.2 7.3C746.4 7.3 746.4 7.6 746.4 8.1C746.4 8.6 746.7 8.9 747.6 9.5C748.7 10.4 749.2 10.9 749.2 11.8C749.2 12.7 748.4 13.6 747.5 13.6C746.6 13.6 746.4 13.4 746.2 13.2L746.1 13.4Z" fill="#DBD0C1"/>
<path d="M772.2 9.5V9.6C771.2 10.5 769.8 12.5 769.1 12.5C768.4 12.5 768.2 11.6 768.7 11.2C769.5 10.5 770.9 10.3 771.7 9.8C771.7 9.8 771.9 9.7 771.7 9.7C769 9.7 767.4 10.9 765.4 10.9C763.4 10.9 764.1 10.3 764.1 9.6C764.1 8.9 764.7 8.3 765.4 8.3C767.4 8.3 769 9.5 771.7 9.5C774.4 9.5 771.8 9.5 771.7 9.4C770.6 8.7 768.5 8.4 768.5 7.5C768.5 6.6 768.8 6.7 769.2 6.7C770 6.7 771.4 8.6 772.3 9.5H772.2Z" fill="#DBD0C1"/>
<path d="M801.7 11.7C801.4 12.3 800.9 12.6 800.1 12.6C799.3 12.6 798.1 11.7 798.1 10.1C798.1 8.5 799.1 7.4 800.3 7.4C801.5 7.4 801.7 7.8 801.9 8.4V7.5H803.1L802.7 10.5C802.6 11.3 802.9 11.7 803.4 11.7C803.9 11.7 804.6 11.1 804.6 9.7C804.6 7.5 803.1 5.9 800.7 5.9C798.3 5.9 796.6 7.9 796.6 10C796.6 12.1 798.3 13.9 800.6 13.9C802.9 13.9 802 13.9 802.8 13.5L803.1 14.3C802.3 14.7 801.5 14.8 800.6 14.8C797.7 14.8 795.7 12.9 795.7 9.9C795.7 6.9 797.8 4.9 800.8 4.9C803.8 4.9 805.6 7 805.6 9.6C805.6 12.2 804.4 12.5 803.4 12.5C802.4 12.5 802.1 12.1 801.7 11.5V11.7ZM801.6 9.8C801.6 8.8 801.1 8.4 800.5 8.4C799.9 8.4 799.1 9.2 799.1 10.2C799.1 11.2 799.4 11.6 800.2 11.6C801 11.6 801.6 10.8 801.6 9.8Z" fill="#DBD0C1"/>
<path d="M807.8 5V13.6H806.5V5H807.8Z" fill="#DBD0C1"/>
<path d="M811.7 8.3C810.7 8.3 810.3 8.6 810.3 9.4H809.1C809.1 8.2 809.9 7.3 811.8 7.3C813.7 7.3 814.2 7.8 814.2 9.5V12.4C814.2 12.8 814.2 13.1 814.8 13V13.6C814.5 13.7 814.3 13.7 814.1 13.7C813.4 13.7 813.1 13.5 813 12.9C812.6 13.4 811.9 13.8 811 13.8C810.1 13.8 809 13.1 809 12C809 10.9 810 10.2 811.5 9.9C812.5 9.7 813 9.6 813 9C813 8.4 812.7 8.2 811.9 8.2L811.7 8.3ZM812.8 11.3V10.4C812.6 10.5 812.1 10.7 811.5 10.8C810.5 11 810 11.3 810 11.9C810 12.5 810.3 12.8 811 12.8C812 12.8 812.8 12.3 812.8 11.3Z" fill="#DBD0C1"/>
<path d="M821.3 10.5C821.3 12.5 820.1 13.7 818.6 13.7C817.1 13.7 817 13.2 816.7 12.8V15.6H815.4V7.4H816.7V8.1C817 7.7 817.6 7.2 818.6 7.2C820.2 7.2 821.3 8.4 821.3 10.4V10.5ZM820 10.5C820 9.3 819.4 8.3 818.3 8.3C817.2 8.3 816.6 9.1 816.6 10.5C816.6 11.9 817.2 12.7 818.3 12.7C819.4 12.7 820 11.7 820 10.5Z" fill="#DBD0C1"/>
<path d="M824.8 8.3C823.8 8.3 823.4 8.6 823.4 9.4H822.2C822.2 8.2 823 7.3 824.9 7.3C826.8 7.3 827.3 7.8 827.3 9.5V12.4C827.3 12.8 827.3 13.1 827.9 13V13.6C827.6 13.7 827.4 13.7 827.2 13.7C826.5 13.7 826.2 13.5 826.1 12.9C825.7 13.4 825 13.8 824.1 13.8C823.2 13.8 822.1 13.1 822.1 12C822.1 10.9 823.1 10.2 824.6 9.9C825.6 9.7 826.1 9.6 826.1 9C826.1 8.4 825.8 8.2 825 8.2L824.8 8.3ZM825.9 11.3V10.4C825.7 10.5 825.2 10.7 824.6 10.8C823.6 11 823.1 11.3 823.1 11.9C823.1 12.5 823.4 12.8 824.1 12.8C825.1 12.8 825.9 12.3 825.9 11.3Z" fill="#DBD0C1"/>
<path d="M829.8 5V13.6H828.5V5H829.8Z" fill="#DBD0C1"/>
<path d="M833.6 8.3C832.6 8.3 832.2 8.6 832.2 9.4H831C831 8.2 831.8 7.3 833.7 7.3C835.6 7.3 836.1 7.8 836.1 9.5V12.4C836.1 12.8 836.1 13.1 836.7 13V13.6C836.4 13.7 836.2 13.7 836 13.7C835.3 13.7 835 13.5 834.9 12.9C834.5 13.4 833.8 13.8 832.9 13.8C832 13.8 830.9 13.1 830.9 12C830.9 10.9 831.9 10.2 833.4 9.9C834.4 9.7 834.9 9.6 834.9 9C834.9 8.4 834.6 8.2 833.8 8.2L833.6 8.3ZM834.7 11.3V10.4C834.5 10.5 834 10.7 833.4 10.8C832.4 11 831.9 11.3 831.9 11.9C831.9 12.5 832.2 12.8 832.9 12.8C833.9 12.8 834.7 12.3 834.7 11.3Z" fill="#DBD0C1"/>
<path d="M840 8.3C838.8 8.3 838.2 9.4 838.2 10.5C838.2 11.6 838.7 12.7 840 12.7C841.3 12.7 841.5 11.9 841.5 11.3H842.8C842.8 12.7 841.6 13.8 840 13.8C838.4 13.8 837 12.5 837 10.6C837 8.7 838.2 7.4 840 7.4C841.8 7.4 842.6 8.4 842.8 9.8H841.5C841.5 9.2 841 8.4 840 8.4V8.3Z" fill="#DBD0C1"/>
<path d="M843.7 5.7C843.7 5.3 844.1 5 844.4 5C844.7 5 845.1 5.2 845.1 5.7C845.1 6.2 844.8 6.4 844.4 6.4C844 6.4 843.7 6.2 843.7 5.7ZM845 7.4V13.5H843.7V7.4H845Z" fill="#DBD0C1"/>
<path d="M849.1 13.8C847.2 13.8 846 12.5 846 10.6C846 8.7 847.2 7.4 849.1 7.4C851 7.4 852.2 8.7 852.2 10.6C852.2 12.5 851 13.8 849.1 13.8ZM849.1 12.7C850.3 12.7 850.9 11.8 850.9 10.5C850.9 9.2 850.3 8.3 849.1 8.3C847.9 8.3 847.3 9.2 847.3 10.5C847.3 11.8 847.9 12.7 849.1 12.7Z" fill="#DBD0C1"/>
<path d="M854.3 5V13.6H853V5H854.3Z" fill="#DBD0C1"/>
<path d="M855.6 5.7C855.6 5.3 856 5 856.3 5C856.6 5 857 5.2 857 5.7C857 6.2 856.7 6.4 856.3 6.4C855.9 6.4 855.6 6.2 855.6 5.7ZM856.9 7.4V13.5H855.6V7.4H856.9Z" fill="#DBD0C1"/>
<path d="M864.1 10.5C864.1 12.5 862.9 13.7 861.4 13.7C859.9 13.7 859.9 13.2 859.5 12.8V13.5H858.2V5H859.5V8.2C859.8 7.7 860.4 7.3 861.4 7.3C863 7.3 864.1 8.5 864.1 10.5ZM862.8 10.5C862.8 9.3 862.2 8.3 861.1 8.3C860 8.3 859.4 9.1 859.4 10.5C859.4 11.9 860 12.7 861.1 12.7C862.2 12.7 862.8 11.7 862.8 10.5Z" fill="#DBD0C1"/>
<path d="M868.5 7.3V8.5C867.3 8.3 866.3 9.1 866.3 10.4V13.5H865V7.4H866.3V8.6C866.6 7.8 867.1 7.3 867.9 7.3C868.7 7.3 868.3 7.3 868.4 7.3H868.5Z" fill="#DBD0C1"/>
<path d="M872 13.8C870.1 13.8 868.9 12.5 868.9 10.6C868.9 8.7 870.1 7.4 872 7.4C873.9 7.4 875.1 8.7 875.1 10.6C875.1 12.5 873.9 13.8 872 13.8ZM872 12.7C873.2 12.7 873.8 11.8 873.8 10.5C873.8 9.2 873.2 8.3 872 8.3C870.8 8.3 870.2 9.2 870.2 10.5C870.2 11.8 870.8 12.7 872 12.7Z" fill="#DBD0C1"/>
<path d="M881 11.9C881 13.1 880 13.8 878.5 13.8C877 13.8 875.7 12.9 875.6 11.6H876.8C876.8 12.3 877.1 12.8 878.5 12.8C879.9 12.8 879.7 12.4 879.7 12C879.7 11.2 879 11.2 878.1 10.9C877.1 10.7 875.8 10.5 875.8 9.1C875.8 7.7 876.7 7.3 878.2 7.3C879.7 7.3 880.7 8.2 880.7 9.3H879.5C879.5 8.8 879.2 8.3 878.2 8.3C877.2 8.3 877 8.6 877 9C877 9.6 877.7 9.7 878.6 9.9C879.7 10.2 881 10.4 881 11.9Z" fill="#DBD0C1"/>
<path d="M903.4 9.5V9.6C902.4 10.5 901 12.5 900.3 12.5C899.6 12.5 899.4 11.6 899.9 11.2C900.7 10.5 902.1 10.3 902.9 9.8C902.9 9.8 903.1 9.7 902.9 9.7C900.2 9.7 898.6 10.9 896.6 10.9C894.6 10.9 895.3 10.3 895.3 9.6C895.3 8.9 895.9 8.3 896.6 8.3C898.6 8.3 900.2 9.5 902.9 9.5C905.6 9.5 903 9.5 902.9 9.4C901.8 8.7 899.7 8.4 899.7 7.5C899.7 6.6 900 6.7 900.4 6.7C901.2 6.7 902.6 8.6 903.5 9.5H903.4Z" fill="#DBD0C1"/>
<path d="M931.3 11.7H932.6C932.3 12.9 931.4 13.8 929.8 13.8C928.2 13.8 926.7 12.5 926.7 10.6C926.7 8.7 927.9 7.4 929.7 7.4C931.5 7.4 932.7 8.8 932.7 11H928C928 12 928.7 12.9 929.8 12.9C930.9 12.9 931.3 12.3 931.4 11.9L931.3 11.7ZM927.9 9.9H931.4C931.4 9 930.7 8.3 929.7 8.3C928.7 8.3 927.9 9 927.9 9.9Z" fill="#DBD0C1"/>
<path d="M938.5 11.9C938.5 13.1 937.5 13.8 936 13.8C934.5 13.8 933.2 12.9 933.1 11.6H934.3C934.3 12.3 934.6 12.8 936 12.8C937.4 12.8 937.2 12.4 937.2 12C937.2 11.2 936.5 11.2 935.6 10.9C934.6 10.7 933.3 10.5 933.3 9.1C933.3 7.7 934.2 7.3 935.7 7.3C937.2 7.3 938.2 8.2 938.2 9.3H937C937 8.8 936.7 8.3 935.7 8.3C934.7 8.3 934.5 8.6 934.5 9C934.5 9.6 935.2 9.7 936.1 9.9C937.2 10.2 938.5 10.4 938.5 11.9Z" fill="#DBD0C1"/>
<path d="M941.2 8.5V11.8C941.2 12.5 941.5 12.6 942.4 12.5V13.5C942.2 13.5 941.9 13.6 941.5 13.6C940.5 13.6 939.9 13.1 939.9 11.8V8.4H939V7.4H939.9V5.5H941.2V7.4H942.4V8.4H941.2V8.5Z" fill="#DBD0C1"/>
<path d="M945.8 8.3C944.8 8.3 944.4 8.6 944.4 9.4H943.2C943.2 8.2 944 7.3 945.9 7.3C947.8 7.3 948.3 7.8 948.3 9.5V12.4C948.3 12.8 948.3 13.1 948.9 13V13.6C948.6 13.7 948.4 13.7 948.2 13.7C947.5 13.7 947.2 13.5 947.1 12.9C946.7 13.4 946 13.8 945.1 13.8C944.2 13.8 943.1 13.1 943.1 12C943.1 10.9 944.1 10.2 945.6 9.9C946.6 9.7 947.1 9.6 947.1 9C947.1 8.4 946.8 8.2 946 8.2L945.8 8.3ZM947 11.3V10.4C946.8 10.5 946.3 10.7 945.7 10.8C944.7 11 944.2 11.3 944.2 11.9C944.2 12.5 944.5 12.8 945.2 12.8C946.2 12.8 947 12.3 947 11.3Z" fill="#DBD0C1"/>
<path d="M958.2 9.4V13.6H956.9V9.7C956.9 8.9 956.7 8.3 955.9 8.3C955.1 8.3 954.5 8.9 954.5 9.8V13.5H953.2V9.6C953.2 8.8 953 8.2 952.2 8.2C951.4 8.2 950.8 8.8 950.8 9.7V13.4H949.5V7.3H950.8V8.1C951.1 7.6 951.7 7.1 952.6 7.1C953.5 7.1 954 7.5 954.2 8.2C954.7 7.6 955.3 7.1 956.2 7.1C957.1 7.1 958.1 7.9 958.1 9.2L958.2 9.4Z" fill="#DBD0C1"/>
<path d="M962.1 13.8C960.2 13.8 959 12.5 959 10.6C959 8.7 960.2 7.4 962.1 7.4C964 7.4 965.2 8.7 965.2 10.6C965.2 12.5 964 13.8 962.1 13.8ZM962.1 12.7C963.3 12.7 963.9 11.8 963.9 10.5C963.9 9.2 963.3 8.3 962.1 8.3C960.9 8.3 960.3 9.2 960.3 10.5C960.3 11.8 960.9 12.7 962.1 12.7Z" fill="#DBD0C1"/>
<path d="M971.1 11.9C971.1 13.1 970.1 13.8 968.6 13.8C967.1 13.8 965.8 12.9 965.7 11.6H966.9C966.9 12.3 967.2 12.8 968.6 12.8C970 12.8 969.8 12.4 969.8 12C969.8 11.2 969.1 11.2 968.2 10.9C967.2 10.7 965.9 10.5 965.9 9.1C965.9 7.7 966.8 7.3 968.3 7.3C969.8 7.3 970.8 8.2 970.8 9.3H969.6C969.6 8.8 969.3 8.3 968.3 8.3C967.3 8.3 967.1 8.6 967.1 9C967.1 9.6 967.8 9.7 968.7 9.9C969.8 10.2 971.1 10.4 971.1 11.9Z" fill="#DBD0C1"/>
<path d="M989.1 11.7H990.4C990.1 12.9 989.2 13.8 987.6 13.8C986 13.8 984.5 12.5 984.5 10.6C984.5 8.7 985.7 7.4 987.5 7.4C989.3 7.4 990.5 8.8 990.5 11H985.8C985.8 12 986.5 12.9 987.6 12.9C988.7 12.9 989.1 12.3 989.2 11.9L989.1 11.7ZM985.7 9.9H989.2C989.2 9 988.5 8.3 987.5 8.3C986.5 8.3 985.7 9 985.7 9.9Z" fill="#DBD0C1"/>
<path d="M996.6 9.4V13.6H995.3V9.7C995.3 8.9 995 8.3 994.1 8.3C993.2 8.3 992.5 8.9 992.5 9.8V13.5H991.2V7.4H992.5V8.2C992.8 7.7 993.5 7.2 994.5 7.2C995.5 7.2 996.5 7.9 996.5 9.3L996.6 9.4Z" fill="#DBD0C1"/>
<path d="M1024.8 0C1026.1 0 1027 0.6 1027 1.5C1027 2.4 1026 4 1024.2 5.3C1022.3 6.8 1019.4 8 1015.9 8C1012.4 8 1014.9 8 1014.5 7.9C1013.8 9.4 1013.4 10.8 1013.4 12C1013.4 13.2 1014 14.2 1015.2 14.2C1018.4 14.2 1019.8 11.2 1019.8 9.7C1019.8 8.3 1018 8.9 1017.6 10.5H1017.3C1017.4 9.5 1018.4 8.6 1019.4 8.6C1022.5 8.6 1019.8 14.5 1015.1 14.5C1010.4 14.5 1012 13.5 1012 11.6C1012 9.7 1012.4 8.9 1013.3 7.5C1012.5 7.1 1012 6.4 1012 5.7C1012 4.4 1013.5 2.9 1016.2 2.9C1018.9 2.9 1017 2.9 1017.4 2.9C1018.5 2.1 1019.7 1.3 1020.9 0.8C1021.9 0.4 1022.8 0.1 1023.5 0C1024 0 1024.4 0 1024.8 0ZM1013.5 7.4C1014.4 6 1015.6 4.6 1017.1 3.4C1016.9 3.4 1016.6 3.4 1016.4 3.4C1013.8 3.4 1012.4 4.8 1012.4 6C1012.4 7.2 1012.8 7.1 1013.5 7.5V7.4ZM1026.2 1.9C1026.3 1.6 1026.4 1.4 1026.4 1.2C1026.4 0.6 1026 0.3 1025 0.3C1024 0.3 1023 0.5 1021.8 1C1020.5 1.5 1019.3 2.2 1018.1 3.2C1019.8 3.6 1021.3 4.5 1022 5.7L1021.8 5.9C1021 4.7 1019.6 3.8 1017.8 3.5C1016.4 4.7 1015.3 6.2 1014.5 7.8C1014.9 7.8 1015.3 7.9 1015.8 7.9C1018.7 7.9 1021.5 6.5 1023.5 4.9C1024.9 3.8 1025.8 2.8 1026.1 1.9H1026.2Z" fill="#DBD0C1"/>
<path d="M1029.3 9.7H1029.7C1028.3 11.6 1026 13.6 1025.2 13.6C1024.4 13.6 1024.6 13.3 1024.6 12.9C1024.6 12.5 1024.7 12.2 1025 11.7C1023.9 12.8 1022.8 13.6 1022.3 13.6C1021.6 13.6 1021.5 12.7 1021.5 12.4C1021.5 10.4 1024.2 6.8 1026.7 6.8C1029.2 6.8 1027.6 7.1 1027.6 7.7C1027.6 8.3 1027.6 8 1027.6 8.1L1028.7 6.6C1028.7 7 1029.3 6.9 1029.7 6.5H1030C1029.2 7.6 1028.3 8.8 1027.4 9.9C1026.2 11.5 1025.1 12.8 1025.1 13.2C1025.1 13.4 1025.1 13.6 1025.1 13.2C1025.8 13.2 1028 11.3 1029.3 9.5V9.7ZM1027.4 7.8C1027.4 7.4 1027.2 7.3 1026.9 7.3C1026.6 7.3 1025.8 7.6 1025.3 8.1C1024.6 8.8 1023.9 9.7 1023.3 10.8C1022.7 11.9 1022.3 12.8 1022.3 13.3C1022.3 13.8 1022.3 13.5 1022.4 13.5C1023.4 13.5 1027.4 9.3 1027.4 7.9V7.8Z" fill="#DBD0C1"/>
<path d="M1034.1 9.8V10.1C1033.6 10.1 1033.1 10 1032.8 9.6C1032 11.9 1029.3 13.7 1028 13.7C1026.7 13.7 1027.4 13.4 1027.4 13C1027.4 12.2 1028.5 10.8 1029.6 9.4C1030.2 8.6 1033.5 4.1 1034.4 3C1034.4 3.4 1035.1 3.3 1035.4 2.8H1035.6C1034.9 4 1031 9.1 1030.3 10.2C1029.1 11.8 1028 13.1 1028 13.5C1028 13.7 1028 13.9 1028 13.5C1029.1 13.5 1031.9 11.8 1032.6 9.4C1032.4 9.2 1032.3 8.9 1032.3 8.7C1032.1 7.5 1033 7.4 1033 8.4C1033 9.4 1033 9 1032.9 9.3C1033.2 9.7 1033.6 9.8 1034.1 9.8Z" fill="#DBD0C1"/>
<path d="M1040.5 9.7H1040.9C1039.5 11.6 1037.2 13.6 1036.4 13.6C1035.6 13.6 1035.8 13.3 1035.8 12.9C1035.8 12.5 1035.9 12.2 1036.2 11.7C1035.1 12.8 1034 13.6 1033.5 13.6C1032.8 13.6 1032.7 12.7 1032.7 12.4C1032.7 10.4 1035.4 6.8 1037.9 6.8C1040.4 6.8 1038.8 7.1 1038.8 7.7C1038.8 8.3 1038.8 8 1038.8 8.1L1039.9 6.6C1039.9 7 1040.5 6.9 1040.9 6.5H1041.2C1040.4 7.6 1039.5 8.8 1038.6 9.9C1037.4 11.5 1036.3 12.8 1036.3 13.2C1036.3 13.4 1036.3 13.6 1036.3 13.2C1037 13.2 1039.2 11.3 1040.5 9.5V9.7ZM1038.6 7.8C1038.6 7.4 1038.4 7.3 1038.1 7.3C1037.8 7.3 1037 7.6 1036.5 8.1C1035.8 8.8 1035.1 9.7 1034.5 10.8C1033.9 11.9 1033.5 12.8 1033.5 13.3C1033.5 13.8 1033.5 13.5 1033.6 13.5C1034.6 13.5 1038.6 9.3 1038.6 7.9V7.8Z" fill="#DBD0C1"/>
<path d="M1066.3 4.5C1065.5 5.9 1064.9 7.6 1064.9 9.8C1064.9 12 1065.5 13.6 1066.3 15.1H1065.2C1064.3 13.9 1063.5 12 1063.5 9.8C1063.5 7.6 1064.3 5.7 1065.2 4.5H1066.3Z" fill="#DBD0C1"/>
<path d="M1071.4 11.7H1072.7C1072.4 12.9 1071.5 13.8 1069.9 13.8C1068.3 13.8 1066.8 12.5 1066.8 10.6C1066.8 8.7 1068 7.4 1069.8 7.4C1071.6 7.4 1072.8 8.8 1072.8 11H1068.1C1068.1 12 1068.8 12.9 1069.9 12.9C1071 12.9 1071.4 12.3 1071.5 11.9L1071.4 11.7ZM1068.1 9.9H1071.5C1071.5 9 1070.8 8.3 1069.8 8.3C1068.8 8.3 1068 9 1068 9.9H1068.1Z" fill="#DBD0C1"/>
<path d="M1079 9.4V13.6H1077.7V9.7C1077.7 8.9 1077.4 8.3 1076.5 8.3C1075.6 8.3 1074.9 8.9 1074.9 9.8V13.5H1073.6V7.4H1074.9V8.2C1075.2 7.7 1075.9 7.2 1076.9 7.2C1077.9 7.2 1078.9 7.9 1078.9 9.3L1079 9.4Z" fill="#DBD0C1"/>
<path d="M1080.9 7.4L1082.5 12.2L1084.1 7.4H1085.4L1083.2 13.5H1081.8L1079.6 7.4H1081H1080.9Z" fill="#DBD0C1"/>
<path d="M1087 7.4V13.5H1085.7V7.4H1087ZM1087.8 4.9L1086.8 6.5H1085.8L1086.3 4.9H1087.8Z" fill="#DBD0C1"/>
<path d="M1090.7 13.8C1088.8 13.8 1087.6 12.5 1087.6 10.6C1087.6 8.7 1088.8 7.4 1090.7 7.4C1092.6 7.4 1093.8 8.7 1093.8 10.6C1093.8 12.5 1092.6 13.8 1090.7 13.8ZM1090.7 12.7C1091.9 12.7 1092.5 11.8 1092.5 10.5C1092.5 9.2 1091.9 8.3 1090.7 8.3C1089.5 8.3 1088.9 9.2 1088.9 10.5C1088.9 11.8 1089.5 12.7 1090.7 12.7Z" fill="#DBD0C1"/>
<path d="M1099.7 11.9C1099.7 13.1 1098.7 13.8 1097.2 13.8C1095.7 13.8 1094.4 12.9 1094.3 11.6H1095.5C1095.5 12.3 1095.8 12.8 1097.2 12.8C1098.6 12.8 1098.4 12.4 1098.4 12C1098.4 11.2 1097.7 11.2 1096.8 10.9C1095.8 10.7 1094.5 10.5 1094.5 9.1C1094.5 7.7 1095.4 7.3 1096.9 7.3C1098.4 7.3 1099.4 8.2 1099.5 9.3H1098.3C1098.3 8.8 1098 8.3 1097 8.3C1096 8.3 1095.8 8.6 1095.8 9C1095.8 9.6 1096.5 9.7 1097.4 9.9C1098.5 10.2 1099.8 10.4 1099.8 11.9H1099.7Z" fill="#DBD0C1"/>
<path d="M1116 8.3C1115 8.3 1114.6 8.6 1114.6 9.4H1113.4C1113.4 8.2 1114.2 7.3 1116.1 7.3C1118 7.3 1118.5 7.8 1118.5 9.5V12.4C1118.5 12.8 1118.5 13.1 1119.1 13V13.6C1118.8 13.7 1118.6 13.7 1118.4 13.7C1117.7 13.7 1117.4 13.5 1117.3 12.9C1116.9 13.4 1116.2 13.8 1115.3 13.8C1114.4 13.8 1113.3 13.1 1113.3 12C1113.3 10.9 1114.3 10.2 1115.8 9.9C1116.7 9.7 1117.3 9.6 1117.3 9C1117.3 8.4 1117 8.2 1116.2 8.2L1116 8.3ZM1117.1 11.3V10.4C1116.9 10.5 1116.4 10.7 1115.8 10.8C1114.7 11 1114.3 11.3 1114.3 11.9C1114.3 12.5 1114.6 12.8 1115.3 12.8C1116.4 12.8 1117.1 12.3 1117.1 11.3Z" fill="#DBD0C1"/>
<path d="M1134.2 8.5V11.8C1134.2 12.5 1134.5 12.6 1135.4 12.5V13.5C1135.2 13.5 1134.9 13.6 1134.5 13.6C1133.5 13.6 1132.9 13.1 1132.9 11.8V8.4H1132V7.4H1132.9V5.5H1134.2V7.4H1135.4V8.4H1134.2V8.5Z" fill="#DBD0C1"/>
<path d="M1139.1 13.8C1137.2 13.8 1136 12.5 1136 10.6C1136 8.7 1137.2 7.4 1139.1 7.4C1141 7.4 1142.2 8.7 1142.2 10.6C1142.2 12.5 1141 13.8 1139.1 13.8ZM1139.1 12.7C1140.3 12.7 1140.9 11.8 1140.9 10.5C1140.9 9.2 1140.3 8.3 1139.1 8.3C1137.9 8.3 1137.3 9.2 1137.3 10.5C1137.3 11.8 1137.9 12.7 1139.1 12.7Z" fill="#DBD0C1"/>
<path d="M1148.6 5V13.6H1147.3V12.9C1147 13.3 1146.4 13.8 1145.4 13.8C1143.8 13.8 1142.7 12.6 1142.7 10.6C1142.7 8.6 1143.9 7.4 1145.4 7.4C1146.9 7.4 1147 7.8 1147.3 8.3V5.1H1148.6V5ZM1147.4 10.5C1147.4 9.1 1146.8 8.3 1145.7 8.3C1144.6 8.3 1144 9.3 1144 10.5C1144 11.7 1144.6 12.7 1145.7 12.7C1146.8 12.7 1147.4 11.8 1147.4 10.5Z" fill="#DBD0C1"/>
<path d="M1152.6 13.8C1150.7 13.8 1149.5 12.5 1149.5 10.6C1149.5 8.7 1150.7 7.4 1152.6 7.4C1154.5 7.4 1155.7 8.7 1155.7 10.6C1155.7 12.5 1154.5 13.8 1152.6 13.8ZM1152.6 12.7C1153.8 12.7 1154.4 11.8 1154.4 10.5C1154.4 9.2 1153.8 8.3 1152.6 8.3C1151.4 8.3 1150.8 9.2 1150.8 10.5C1150.8 11.8 1151.4 12.7 1152.6 12.7Z" fill="#DBD0C1"/>
<path d="M1173.7 11.7H1175C1174.7 12.9 1173.8 13.8 1172.2 13.8C1170.6 13.8 1169.1 12.5 1169.1 10.6C1169.1 8.7 1170.3 7.4 1172.1 7.4C1173.9 7.4 1175.1 8.8 1175.1 11H1170.4C1170.4 12 1171.1 12.9 1172.2 12.9C1173.3 12.9 1173.7 12.3 1173.8 11.9L1173.7 11.7ZM1170.3 9.9H1173.7C1173.7 9 1173 8.3 1172 8.3C1171 8.3 1170.2 9 1170.2 9.9H1170.3Z" fill="#DBD0C1"/>
<path d="M1177.2 5V13.6H1175.9V5H1177.2Z" fill="#DBD0C1"/>
<path d="M1197.2 10.5C1197.2 12.5 1196 13.7 1194.5 13.7C1193 13.7 1192.9 13.2 1192.6 12.8V15.6H1191.3V7.4H1192.6V8.1C1192.9 7.7 1193.5 7.2 1194.5 7.2C1196.1 7.2 1197.2 8.4 1197.2 10.4V10.5ZM1195.9 10.5C1195.9 9.3 1195.3 8.3 1194.2 8.3C1193.1 8.3 1192.5 9.1 1192.5 10.5C1192.5 11.9 1193.1 12.7 1194.2 12.7C1195.3 12.7 1195.9 11.7 1195.9 10.5Z" fill="#DBD0C1"/>
<path d="M1200.7 8.3C1199.7 8.3 1199.3 8.6 1199.3 9.4H1198.1C1198.1 8.2 1198.9 7.3 1200.8 7.3C1202.7 7.3 1203.2 7.8 1203.2 9.5V12.4C1203.2 12.8 1203.2 13.1 1203.8 13V13.6C1203.5 13.7 1203.3 13.7 1203.1 13.7C1202.4 13.7 1202.1 13.5 1202 12.9C1201.6 13.4 1200.9 13.8 1200 13.8C1199.1 13.8 1198 13.1 1198 12C1198 10.9 1199 10.2 1200.5 9.9C1201.4 9.7 1202 9.6 1202 9C1202 8.4 1201.7 8.2 1200.9 8.2L1200.7 8.3ZM1201.8 11.3V10.4C1201.6 10.5 1201.1 10.7 1200.5 10.8C1199.4 11 1199 11.3 1199 11.9C1199 12.5 1199.3 12.8 1200 12.8C1201.1 12.8 1201.8 12.3 1201.8 11.3Z" fill="#DBD0C1"/>
<path d="M1205.4 7.4V13.5H1204.1V7.4H1205.4ZM1206.2 4.9L1205.2 6.5H1204.2L1204.7 4.9H1206.2Z" fill="#DBD0C1"/>
<path d="M1211.4 11.9C1211.4 13.1 1210.4 13.8 1208.9 13.8C1207.4 13.8 1206.1 12.9 1206 11.6H1207.2C1207.2 12.3 1207.5 12.8 1208.9 12.8C1210.3 12.8 1210.1 12.4 1210.1 12C1210.1 11.2 1209.4 11.2 1208.5 10.9C1207.5 10.7 1206.2 10.5 1206.2 9.1C1206.2 7.7 1207.1 7.3 1208.6 7.3C1210.1 7.3 1211.1 8.2 1211.2 9.3H1210C1210 8.8 1209.7 8.3 1208.7 8.3C1207.7 8.3 1207.5 8.6 1207.5 9C1207.5 9.6 1208.2 9.7 1209.1 9.9C1210.2 10.2 1211.5 10.4 1211.5 11.9H1211.4Z" fill="#DBD0C1"/>
<path d="M1214.6 9.8C1214.6 12 1213.8 13.9 1212.9 15.1H1211.8C1212.6 13.7 1213.2 12 1213.2 9.8C1213.2 7.6 1212.6 5.9 1211.8 4.5H1212.9C1213.8 5.7 1214.6 7.6 1214.6 9.8Z" fill="#DBD0C1"/>
<path d="M1233.8 9.7C1232.7 11 1230.7 13.8 1228.7 13.8C1226.7 13.8 1226.9 9.7 1229.8 9.1C1228.6 8.3 1229.9 6.6 1232 6.6C1234.1 6.6 1233.4 8.7 1232 8.7C1230.6 8.7 1231.5 8.1 1232 8.1C1232.9 8.1 1233.3 7 1232 7C1230.7 7 1230.3 7.4 1230.3 8.5C1230.3 9.6 1230.3 9 1230.5 9.2C1230.8 9.2 1231.1 9.2 1231.1 9.4C1231.1 9.6 1231 9.6 1230.8 9.6C1230.6 9.6 1230.5 9.6 1230.4 9.5C1228.4 10 1227.5 13.6 1228.8 13.6C1230.1 13.6 1232.4 11.2 1233.5 9.8H1233.9L1233.8 9.7Z" fill="#DBD0C1"/>
<path d="M1235.5 7.3C1235.5 7.5 1235.5 7.8 1235.4 8C1235.4 9.1 1236 10 1236 11.1C1236 12.2 1236 11.3 1236 11.4C1235.9 12.7 1234.6 13.8 1233.3 13.8C1232 13.8 1232.8 13.8 1232.5 13.6C1231.9 13.3 1231.5 12.7 1231.5 11.9C1231.5 11.1 1231.5 11.3 1231.7 10.9C1231.7 10.9 1231.7 10.7 1231.8 10.6C1231.9 10.5 1232 10.4 1232.2 10.4C1232.4 10.4 1232.5 10.5 1232.5 10.7C1232.5 10.9 1232.5 10.9 1232.5 11C1232.3 11.2 1232.1 11.3 1232 11.4C1232 11.5 1232 11.7 1232 11.9C1232 12.8 1232.5 13.5 1233.2 13.5C1233.9 13.5 1234.8 12.5 1235.2 11.1C1235.2 10.9 1235.2 10.7 1235.2 10.5C1235.2 10.3 1235.2 10.2 1235.2 10C1235.2 9.7 1235.2 9.3 1235.2 9C1235.2 8.7 1235.2 8.5 1235.2 8.2C1234.8 8.8 1234.2 9.5 1233.7 10.2H1233.4C1234.4 8.9 1234.9 8.3 1235.4 7.5C1235.7 7 1235.5 6.4 1236 6.3C1236.2 6.3 1236.3 6.4 1236.3 6.6C1236.3 6.9 1235.9 7.1 1235.6 7.4L1235.5 7.3Z" fill="#DBD0C1"/>
<path d="M1243.1 9.8C1241.8 11.6 1238.9 13.8 1237.5 13.8C1236.1 13.8 1236.7 12.9 1236.7 12.6C1236.7 12.1 1236.9 11.5 1237.2 10.9C1235.6 12.6 1233.5 14.1 1231.9 14V13.7C1233.8 13.7 1236.4 11.5 1238.1 9.4C1239.3 7.8 1240.8 6.8 1242.1 6.8C1243.4 6.8 1242.9 7.1 1242.9 7.6C1242.9 8.1 1242.4 8.8 1241.8 8.9C1241.6 8.9 1241.4 8.9 1241.4 8.7C1241.4 8.5 1241.6 8.4 1241.7 8.4C1242.2 8.4 1242.5 8.1 1242.5 7.6C1242.5 7.1 1242.4 7.2 1242.1 7.2C1240.7 7.2 1237.4 12.1 1237.4 13.3C1237.4 14.5 1237.4 13.5 1237.5 13.5C1238.7 13.5 1241.5 11.6 1242.7 9.8H1243.1Z" fill="#DBD0C1"/>
<path d="M1247.3 7.5C1246.3 8.1 1245.5 10.9 1246.4 10.9C1247.3 10.9 1247.2 10.5 1247.7 9.8H1248.1C1247.5 10.6 1246.9 11.2 1246.5 11.2C1245.8 11.2 1245.4 10.6 1245.5 9.9C1245.5 9.2 1246.2 8.2 1246.8 7.6C1244.6 8.4 1241.9 12.4 1241 13.9C1241 13.9 1240.7 13.9 1240.6 13.9C1240.5 13.9 1240.3 13.9 1240.2 13.9V13.7C1242.4 10.5 1244.1 8.4 1244.1 7.5C1244.1 6.6 1244.1 7.3 1244.1 7.3C1243.8 7.3 1243.9 7 1244.2 7C1244.5 7 1244.9 7.3 1244.9 7.9C1244.9 8.5 1244.8 8.6 1244.5 8.9C1245.5 7.9 1246.4 7.3 1247.2 7.2C1247.4 7.2 1247.7 6.9 1247.9 6.9C1248.1 6.9 1248.4 7 1248.4 7.3C1248.4 7.6 1248.2 7.7 1247.9 7.7C1247.6 7.7 1247.6 7.7 1247.4 7.7L1247.3 7.5Z" fill="#DBD0C1"/>
<path d="M1251.1 6.7C1248.8 10.1 1247.6 11.4 1246 13.7C1245.9 13.3 1245.4 13.3 1245 13.7H1244.8C1245.8 12.2 1248.6 8.3 1249.8 6.8C1249.8 7.2 1250.5 7.1 1250.8 6.6H1251C1251 6.66667 1251 6.7 1251 6.7H1251.1ZM1252 4.8C1251.8 5.2 1251.5 5.4 1251.2 5.4C1250.9 5.4 1250.8 5 1251 4.6C1251.2 4.2 1251.5 4 1251.8 4C1252.1 4 1252.2 4.4 1252 4.8Z" fill="#DBD0C1"/>
<path d="M1257.6 1.5C1258 1.5 1258.3 1.8 1258.3 2.2C1258.3 3.3 1256.5 6 1253.9 6.9L1251.5 10.1C1250.3 11.7 1249.2 13 1249.2 13.4C1249.2 13.6 1249.2 13.8 1249.2 13.4C1250.3 13.4 1253.1 11.7 1253.8 9.3C1253.6 9.1 1253.5 8.8 1253.5 8.6C1253.3 7.4 1254.2 7.3 1254.2 8.3C1254.2 9.3 1254.2 8.9 1254.1 9.2C1254.4 9.6 1254.8 9.7 1255.3 9.7V10C1254.8 10 1254.3 9.9 1254 9.5C1253.2 11.8 1250.5 13.6 1249.2 13.6C1247.9 13.6 1248.6 13.3 1248.6 12.9C1248.6 12.1 1249.7 10.7 1250.8 9.3C1251.3 8.7 1253.3 6 1254.6 4.2C1256 2.3 1256.9 1.5 1257.6 1.5ZM1255.6 4.5L1254.2 6.5C1256.5 5.6 1257.9 3.2 1257.9 2.2C1257.9 1.2 1257.9 1.9 1257.6 1.9C1257.1 1.9 1256.2 3.7 1255.6 4.5Z" fill="#DBD0C1"/>
<path d="M1258.6 6.7C1256.3 10.1 1255.1 11.4 1253.5 13.7C1253.4 13.3 1252.9 13.3 1252.5 13.7H1252.3C1253.3 12.2 1256.1 8.3 1257.3 6.8C1257.3 7.2 1258 7.1 1258.3 6.6H1258.5C1258.5 6.66667 1258.5 6.7 1258.5 6.7H1258.6ZM1259.5 4.8C1259.3 5.2 1259 5.4 1258.7 5.4C1258.4 5.4 1258.3 5 1258.5 4.6C1258.7 4.2 1259 4 1259.3 4C1259.6 4 1259.7 4.4 1259.5 4.8Z" fill="#DBD0C1"/>
<path d="M1265.5 9.7C1264.2 11.5 1262.1 13.6 1261.3 13.6C1260.5 13.6 1260.7 13.3 1260.7 12.9C1260.7 12.1 1261.6 10.9 1262.6 9.6C1263.2 8.9 1263.8 8 1263.8 7.4C1263.8 6.8 1263.8 7.1 1263.5 7.1C1263.2 7.1 1263.2 7.1 1263.1 7.1C1261.7 7.9 1259 12.2 1258 13.6C1258 13.4 1257.3 13.4 1257.1 13.6H1257C1259.1 10.3 1260.8 8.2 1260.8 7.3C1260.8 6.4 1260.8 7.1 1260.8 7.1C1260.6 7.1 1259.6 8.1 1258.3 9.8H1258C1259.4 8 1260.4 6.9 1260.8 6.8C1260.8 6.8 1260.8 6.8 1261 6.8C1261.5 6.8 1261.7 7.1 1261.7 7.7C1261.7 8.3 1261.7 8.2 1261.5 8.5C1262.1 7.8 1262.7 7.2 1263.2 7C1263.4 6.9 1263.6 6.8 1263.8 6.8C1264.3 6.8 1264.7 7.2 1264.7 7.8C1264.7 8.4 1264.3 9.2 1263.7 10.1C1262.5 11.7 1261.4 13 1261.4 13.4C1261.4 13.6 1261.4 13.8 1261.4 13.4C1262.1 13.4 1263.9 11.7 1265.3 9.7H1265.7H1265.5Z" fill="#DBD0C1"/>
<path d="M1270.1 8C1270.1 10.6 1267.2 13.8 1264.8 13.8C1262.4 13.8 1264 12.9 1264 12.6C1264 10.7 1266.8 6.9 1269.2 6.9C1271.6 6.9 1270.2 7.3 1270.2 7.9L1270.1 8ZM1265.1 11.8C1264.8 12.3 1264.6 13 1264.6 13.3C1264.6 13.6 1264.6 13.5 1264.6 13.5C1266.6 13.5 1269.5 9.4 1269.5 7.8C1269.5 6.2 1269.3 7.3 1269 7.3C1268 7.3 1266 10 1265 11.9L1265.1 11.8Z" fill="#DBD0C1"/>
<path d="M1272.7 7.3C1272.7 7.5 1272.7 7.8 1272.6 8C1272.6 9.1 1273.2 10 1273.2 11.1C1273.2 12.2 1273.2 11.3 1273.2 11.4C1273.1 12.7 1271.8 13.8 1270.5 13.8C1269.2 13.8 1270 13.8 1269.7 13.6C1269.1 13.3 1268.7 12.7 1268.7 11.9C1268.7 11.1 1268.7 11.3 1268.9 10.9C1268.9 10.9 1268.9 10.7 1269 10.6C1269.1 10.5 1269.2 10.4 1269.4 10.4C1269.6 10.4 1269.7 10.5 1269.7 10.7C1269.7 10.9 1269.7 10.9 1269.7 11C1269.5 11.2 1269.3 11.3 1269.2 11.4C1269.2 11.5 1269.2 11.7 1269.2 11.9C1269.2 12.8 1269.7 13.5 1270.4 13.5C1271.1 13.5 1272 12.5 1272.4 11.1C1272.4 10.9 1272.4 10.7 1272.4 10.5C1272.4 10.3 1272.4 10.2 1272.4 10C1272.4 9.7 1272.4 9.3 1272.4 9C1272.4 8.7 1272.4 8.5 1272.4 8.2C1272 8.8 1271.4 9.5 1270.9 10.2H1270.6C1271.6 8.9 1272.1 8.3 1272.6 7.5C1272.9 7 1272.7 6.4 1273.2 6.3C1273.4 6.3 1273.5 6.4 1273.5 6.6C1273.5 6.9 1273.1 7.1 1272.8 7.4L1272.7 7.3Z" fill="#DBD0C1"/>
</g>
<defs>
<clipPath id="clip0_519_14037">
<rect width="1273.3" height="17" fill="white"/>
</clipPath>
</defs>
</svg>
